<mxfile host="65bd71144e">
    <diagram id="TUApsftfNjrQfNg4yQCh" name="Page-1">
        <mxGraphModel dx="857" dy="449" grid="1" gridSize="10" guides="1" tooltips="1" connect="1" arrows="1" fold="1" page="1" pageScale="1" pageWidth="827" pageHeight="1169" math="0" shadow="0">
            <root>
                <mxCell id="0"/>
                <mxCell id="1" parent="0"/>
                <mxCell id="2" value="" style="html=1;dashed=0;whitespace=wrap;" parent="1" vertex="1">
                    <mxGeometry x="150" y="80" width="500" height="730" as="geometry"/>
                </mxCell>
                <mxCell id="3" value="" style="ellipse;html=1;shape=startState;fillColor=#000000;strokeColor=#ff0000;" parent="1" vertex="1">
                    <mxGeometry x="385" y="100" width="30" height="30" as="geometry"/>
                </mxCell>
                <mxCell id="4" value="" style="edgeStyle=orthogonalEdgeStyle;html=1;verticalAlign=bottom;endArrow=open;endSize=8;strokeColor=#ff0000;entryX=0.5;entryY=0;entryDx=0;entryDy=0;" parent="1" source="3" target="6" edge="1">
                    <mxGeometry relative="1" as="geometry">
                        <mxPoint x="335" y="170" as="targetPoint"/>
                    </mxGeometry>
                </mxCell>
                <mxCell id="5" value="" style="ellipse;html=1;shape=endState;fillColor=#000000;strokeColor=#ff0000;" parent="1" vertex="1">
                    <mxGeometry x="370" y="750" width="30" height="30" as="geometry"/>
                </mxCell>
                <mxCell id="30" style="edgeStyle=none;html=1;exitX=0.5;exitY=1;exitDx=0;exitDy=0;entryX=0.608;entryY=0.03;entryDx=0;entryDy=0;entryPerimeter=0;" parent="1" source="6" target="18" edge="1">
                    <mxGeometry relative="1" as="geometry"/>
                </mxCell>
                <mxCell id="31" style="edgeStyle=none;html=1;exitX=0.5;exitY=1;exitDx=0;exitDy=0;" parent="1" source="6" target="19" edge="1">
                    <mxGeometry relative="1" as="geometry"/>
                </mxCell>
                <mxCell id="6" value="משתמש מעוניין להתחבר לאתר" style="ellipse;whiteSpace=wrap;html=1;fontSize=12;" parent="1" vertex="1">
                    <mxGeometry x="340" y="150" width="120" height="50" as="geometry"/>
                </mxCell>
                <mxCell id="29" style="edgeStyle=none;html=1;exitX=0.5;exitY=1;exitDx=0;exitDy=0;entryX=0.57;entryY=0.03;entryDx=0;entryDy=0;entryPerimeter=0;" parent="1" source="18" target="21" edge="1">
                    <mxGeometry relative="1" as="geometry"/>
                </mxCell>
                <mxCell id="18" value="משתמש אינו רשום" style="ellipse;whiteSpace=wrap;html=1;" parent="1" vertex="1">
                    <mxGeometry x="280" y="220" width="120" height="50" as="geometry"/>
                </mxCell>
                <mxCell id="27" style="edgeStyle=none;html=1;exitX=0.5;exitY=1;exitDx=0;exitDy=0;entryX=0.592;entryY=0.01;entryDx=0;entryDy=0;entryPerimeter=0;" parent="1" source="19" target="22" edge="1">
                    <mxGeometry relative="1" as="geometry"/>
                </mxCell>
                <mxCell id="28" style="edgeStyle=none;html=1;exitX=1;exitY=1;exitDx=0;exitDy=0;" parent="1" source="19" target="20" edge="1">
                    <mxGeometry relative="1" as="geometry"/>
                </mxCell>
                <mxCell id="19" value="משתמש רשום" style="ellipse;whiteSpace=wrap;html=1;" parent="1" vertex="1">
                    <mxGeometry x="430" y="220" width="120" height="50" as="geometry"/>
                </mxCell>
                <mxCell id="25" style="edgeStyle=none;html=1;exitX=0.5;exitY=1;exitDx=0;exitDy=0;entryX=0.5;entryY=0;entryDx=0;entryDy=0;" parent="1" source="20" target="32" edge="1">
                    <mxGeometry relative="1" as="geometry"/>
                </mxCell>
                <mxCell id="20" value="עדכון סיסמה" style="ellipse;whiteSpace=wrap;html=1;" parent="1" vertex="1">
                    <mxGeometry x="530" y="290" width="70" height="50" as="geometry"/>
                </mxCell>
                <mxCell id="44" style="edgeStyle=none;html=1;exitX=0.5;exitY=1;exitDx=0;exitDy=0;entryX=0.5;entryY=0;entryDx=0;entryDy=0;" parent="1" source="21" target="43" edge="1">
                    <mxGeometry relative="1" as="geometry"/>
                </mxCell>
                <mxCell id="45" value="בדיקת תקינות הקלט" style="edgeLabel;html=1;align=center;verticalAlign=middle;resizable=0;points=[];" parent="44" vertex="1" connectable="0">
                    <mxGeometry x="-0.1667" relative="1" as="geometry">
                        <mxPoint as="offset"/>
                    </mxGeometry>
                </mxCell>
                <mxCell id="21" value="ביצוע הרשמה" style="ellipse;whiteSpace=wrap;html=1;" parent="1" vertex="1">
                    <mxGeometry x="260" y="290" width="100" height="50" as="geometry"/>
                </mxCell>
                <mxCell id="51" style="edgeStyle=none;html=1;exitX=0.5;exitY=1;exitDx=0;exitDy=0;entryX=0.5;entryY=0;entryDx=0;entryDy=0;" parent="1" source="22" target="50" edge="1">
                    <mxGeometry relative="1" as="geometry"/>
                </mxCell>
                <mxCell id="52" value="בדיקת תקינות הקלט" style="edgeLabel;html=1;align=center;verticalAlign=middle;resizable=0;points=[];" parent="51" vertex="1" connectable="0">
                    <mxGeometry x="-0.2078" y="2" relative="1" as="geometry">
                        <mxPoint as="offset"/>
                    </mxGeometry>
                </mxCell>
                <mxCell id="22" value="ניסיון התחברות" style="ellipse;whiteSpace=wrap;html=1;" parent="1" vertex="1">
                    <mxGeometry x="325" y="500" width="120" height="50" as="geometry"/>
                </mxCell>
                <mxCell id="35" style="edgeStyle=none;html=1;exitX=0.5;exitY=1;exitDx=0;exitDy=0;entryX=0.5;entryY=0;entryDx=0;entryDy=0;" parent="1" source="32" target="34" edge="1">
                    <mxGeometry relative="1" as="geometry"/>
                </mxCell>
                <mxCell id="36" value="אימות פרטים" style="edgeLabel;html=1;align=center;verticalAlign=middle;resizable=0;points=[];" parent="35" vertex="1" connectable="0">
                    <mxGeometry x="-0.182" y="5" relative="1" as="geometry">
                        <mxPoint as="offset"/>
                    </mxGeometry>
                </mxCell>
                <mxCell id="32" value="פתיחת מסך לעדכון סיסמה" style="ellipse;whiteSpace=wrap;html=1;" parent="1" vertex="1">
                    <mxGeometry x="520" y="370" width="90" height="60" as="geometry"/>
                </mxCell>
                <mxCell id="39" style="edgeStyle=none;html=1;exitX=1;exitY=1;exitDx=0;exitDy=0;" parent="1" source="34" target="38" edge="1">
                    <mxGeometry relative="1" as="geometry"/>
                </mxCell>
                <mxCell id="41" value="לא תקין" style="edgeLabel;html=1;align=center;verticalAlign=middle;resizable=0;points=[];" parent="39" vertex="1" connectable="0">
                    <mxGeometry x="-0.0673" y="2" relative="1" as="geometry">
                        <mxPoint as="offset"/>
                    </mxGeometry>
                </mxCell>
                <mxCell id="40" style="edgeStyle=none;html=1;exitX=0;exitY=1;exitDx=0;exitDy=0;" parent="1" source="34" target="37" edge="1">
                    <mxGeometry relative="1" as="geometry"/>
                </mxCell>
                <mxCell id="42" value="תקין" style="edgeLabel;html=1;align=center;verticalAlign=middle;resizable=0;points=[];" parent="40" vertex="1" connectable="0">
                    <mxGeometry x="-0.3827" y="-1" relative="1" as="geometry">
                        <mxPoint as="offset"/>
                    </mxGeometry>
                </mxCell>
                <mxCell id="34" value="פרטים אומתו בהצלחה" style="rhombus;whiteSpace=wrap;html=1;" parent="1" vertex="1">
                    <mxGeometry x="510" y="470" width="80" height="80" as="geometry"/>
                </mxCell>
                <mxCell id="59" style="edgeStyle=none;html=1;exitX=0;exitY=0;exitDx=0;exitDy=0;entryX=1;entryY=1;entryDx=0;entryDy=0;" parent="1" source="37" target="22" edge="1">
                    <mxGeometry relative="1" as="geometry"/>
                </mxCell>
                <mxCell id="37" value="התראה של הצלחה" style="ellipse;whiteSpace=wrap;html=1;" parent="1" vertex="1">
                    <mxGeometry x="450" y="570" width="90" height="60" as="geometry"/>
                </mxCell>
                <mxCell id="38" value="התראה של כישלון" style="ellipse;whiteSpace=wrap;html=1;" parent="1" vertex="1">
                    <mxGeometry x="550" y="570" width="90" height="60" as="geometry"/>
                </mxCell>
                <mxCell id="46" value="תקין" style="edgeStyle=none;html=1;exitX=1;exitY=1;exitDx=0;exitDy=0;" parent="1" source="43" target="22" edge="1">
                    <mxGeometry relative="1" as="geometry"/>
                </mxCell>
                <mxCell id="48" value="לא תקין" style="edgeStyle=none;html=1;exitX=0;exitY=1;exitDx=0;exitDy=0;" parent="1" source="43" target="47" edge="1">
                    <mxGeometry relative="1" as="geometry"/>
                </mxCell>
                <mxCell id="43" value="בדיקת פרטים אישיים" style="rhombus;whiteSpace=wrap;html=1;" parent="1" vertex="1">
                    <mxGeometry x="254" y="400" width="80" height="80" as="geometry"/>
                </mxCell>
                <mxCell id="47" value="התראה על כישלון" style="ellipse;whiteSpace=wrap;html=1;" parent="1" vertex="1">
                    <mxGeometry x="160" y="500" width="120" height="50" as="geometry"/>
                </mxCell>
                <mxCell id="54" style="edgeStyle=none;html=1;exitX=0;exitY=1;exitDx=0;exitDy=0;" parent="1" source="50" target="53" edge="1">
                    <mxGeometry relative="1" as="geometry"/>
                </mxCell>
                <mxCell id="55" value="תקין" style="edgeLabel;html=1;align=center;verticalAlign=middle;resizable=0;points=[];" parent="54" vertex="1" connectable="0">
                    <mxGeometry x="-0.1328" relative="1" as="geometry">
                        <mxPoint as="offset"/>
                    </mxGeometry>
                </mxCell>
                <mxCell id="57" style="edgeStyle=none;html=1;exitX=1;exitY=1;exitDx=0;exitDy=0;" parent="1" source="50" target="56" edge="1">
                    <mxGeometry relative="1" as="geometry"/>
                </mxCell>
                <mxCell id="58" value="לא תקין" style="edgeLabel;html=1;align=center;verticalAlign=middle;resizable=0;points=[];" parent="57" vertex="1" connectable="0">
                    <mxGeometry x="-0.185" y="-1" relative="1" as="geometry">
                        <mxPoint as="offset"/>
                    </mxGeometry>
                </mxCell>
                <mxCell id="50" value="בדיקת פרטי ההתחברות" style="rhombus;whiteSpace=wrap;html=1;" parent="1" vertex="1">
                    <mxGeometry x="334" y="620" width="80" height="80" as="geometry"/>
                </mxCell>
                <mxCell id="60" style="edgeStyle=none;html=1;exitX=1;exitY=1;exitDx=0;exitDy=0;" parent="1" source="53" target="5" edge="1">
                    <mxGeometry relative="1" as="geometry"/>
                </mxCell>
                <mxCell id="53" value="כניסת משתמש בהצלחה" style="ellipse;whiteSpace=wrap;html=1;" parent="1" vertex="1">
                    <mxGeometry x="240" y="690" width="120" height="50" as="geometry"/>
                </mxCell>
                <mxCell id="56" value="התראה של כישלון התחברות" style="ellipse;whiteSpace=wrap;html=1;" parent="1" vertex="1">
                    <mxGeometry x="400" y="700" width="120" height="50" as="geometry"/>
                </mxCell>
            </root>
        </mxGraphModel>
    </diagram>
</mxfile>